<?xml version="1.0" encoding="utf-8"?>
<!-- Generator: Adobe Illustrator 27.5.0, SVG Export Plug-In . SVG Version: 6.00 Build 0)  -->
<svg version="1.1" xmlns="http://www.w3.org/2000/svg" xmlns:xlink="http://www.w3.org/1999/xlink" x="0px" y="0px"
	 viewBox="0 0 750 500" style="enable-background:new 0 0 750 500;" xml:space="preserve">
<g id="BACKGROUND">
	<rect style="fill:#D2F5EF;" width="750" height="500"/>
</g>
<g id="OBJECTS">
	<g>
		<defs>
			<rect id="SVGID_1_" width="750" height="500"/>
		</defs>
		<clipPath id="SVGID_00000027580118130980862310000016294883813692646833_">
			<use xlink:href="#SVGID_1_"  style="overflow:visible;"/>
		</clipPath>
		<g style="clip-path:url(#SVGID_00000027580118130980862310000016294883813692646833_);">
			<path style="fill:#42B9A8;" d="M337.841,387.255L337.841,387.255c6.766,0,12.251,5.485,12.251,12.251v133.655
				c0,6.766-5.485,12.251-12.251,12.251l0,0c-6.766,0-12.251-5.485-12.251-12.251V399.506
				C325.591,392.74,331.075,387.255,337.841,387.255z"/>
			<path style="fill:#FFFFFF;" d="M409.203-99.985L409.203-99.985c14.817,0,26.828,12.011,26.828,26.828V66.512
				c0,14.817-12.011,26.828-26.828,26.828l0,0c-14.817,0-26.828-12.011-26.828-26.828V-73.157
				C382.375-87.974,394.386-99.985,409.203-99.985z"/>
			<path style="fill:#FED047;" d="M187.599,540.118L187.599,540.118c-6.766,0-12.251-5.485-12.251-12.25V394.212
				c0-6.766,5.485-12.25,12.251-12.25l0,0c6.766,0,12.251,5.485,12.251,12.25v133.656
				C199.85,534.634,194.365,540.118,187.599,540.118z"/>
			<circle style="fill:#FED047;" cx="70.647" cy="215.689" r="63.841"/>
			
				<ellipse transform="matrix(0.2298 -0.9732 0.9732 0.2298 89.5428 226.0732)" style="fill:#FFFFFF;" cx="187.599" cy="56.466" rx="28.061" ry="28.061"/>
			
				<ellipse transform="matrix(0.6054 -0.7959 0.7959 0.6054 150.55 402.4758)" style="fill:#FFFFFF;" cx="481.181" cy="49.405" rx="28.061" ry="28.061"/>
			<path style="fill:#FED047;" d="M145.582,306.072c-12.716,0-23.024,10.307-23.024,23.023c0,12.716,10.307,23.024,23.024,23.024
				c12.716,0,23.023-10.307,23.023-23.024C168.606,316.38,158.299,306.072,145.582,306.072z M145.582,342.026
				c-7.141,0-12.93-5.79-12.93-12.93c0-7.14,5.79-12.93,12.93-12.93c7.141,0,12.93,5.79,12.93,12.93
				C158.513,336.237,152.723,342.026,145.582,342.026z"/>
			<path style="fill:#FED047;" d="M265.486-43.69c-27.921,0-50.553,22.632-50.553,50.553c0,27.921,22.632,50.553,50.553,50.553
				c27.921,0,50.553-22.632,50.553-50.553C316.039-21.058,293.407-43.69,265.486-43.69z M265.486,35.255
				c-15.679,0-28.391-12.713-28.391-28.392s12.713-28.391,28.391-28.391c15.679,0,28.392,12.713,28.392,28.391
				S281.165,35.255,265.486,35.255z"/>
			<path style="fill:#FFFFFF;" d="M21.289,523.35L21.289,523.35c-16.814,0-30.444-13.63-30.444-30.444V334.414
				c0-16.814,13.63-30.444,30.444-30.444h0c16.814,0,30.444,13.63,30.444,30.444v158.492C51.733,509.72,38.103,523.35,21.289,523.35
				z"/>
			<path style="fill:#FFFFFF;" d="M104.207,103.526L104.207,103.526c-14.817,0-26.828-12.011-26.828-26.828V-62.971
				c0-14.817,12.012-26.828,26.828-26.828l0,0c14.817,0,26.828,12.011,26.828,26.828V76.697
				C131.036,91.514,119.024,103.526,104.207,103.526z"/>
			<path style="fill:none;stroke:#005264;stroke-width:0.75;stroke-linecap:round;stroke-linejoin:round;stroke-miterlimit:10;" d="
				M131.036,125.305L131.036,125.305c-6.766,0-12.251-5.485-12.251-12.251V-20.601c0-6.766,5.485-12.251,12.251-12.251h0
				c6.766,0,12.251,5.485,12.251,12.251v133.656C143.286,119.82,137.802,125.305,131.036,125.305z"/>
			<path style="fill:none;stroke:#005264;stroke-width:0.75;stroke-linecap:round;stroke-linejoin:round;stroke-miterlimit:10;" d="
				M169.216,579.182L169.216,579.182c-6.766,0-12.251-5.485-12.251-12.251V433.276c0-6.766,5.485-12.25,12.251-12.25h0
				c6.766,0,12.251,5.485,12.251,12.25v133.656C181.467,573.697,175.982,579.182,169.216,579.182z"/>
			<g>
				
					<line style="fill:none;stroke:#005264;stroke-width:2.6934;stroke-miterlimit:10;" x1="74.191" y1="344.638" x2="86.788" y2="332.041"/>
				
					<line style="fill:none;stroke:#005264;stroke-width:2.6934;stroke-miterlimit:10;" x1="74.191" y1="332.041" x2="86.788" y2="344.638"/>
			</g>
			<g>
				
					<line style="fill:none;stroke:#005264;stroke-width:2.6934;stroke-miterlimit:10;" x1="74.191" y1="318.67" x2="86.788" y2="306.072"/>
				
					<line style="fill:none;stroke:#005264;stroke-width:2.6934;stroke-miterlimit:10;" x1="74.191" y1="306.073" x2="86.788" y2="318.67"/>
			</g>
			<g>
				
					<line style="fill:none;stroke:#005264;stroke-width:2.6934;stroke-miterlimit:10;" x1="215.661" y1="105.372" x2="228.258" y2="92.775"/>
				
					<line style="fill:none;stroke:#005264;stroke-width:2.6934;stroke-miterlimit:10;" x1="215.661" y1="92.775" x2="228.258" y2="105.372"/>
			</g>
			<g>
				<defs>
					<circle id="SVGID_00000058559795576526889760000013090923477289611938_" cx="17.247" cy="19.891" r="49.362"/>
				</defs>
				<clipPath id="SVGID_00000183971678584991947230000018424561110555484349_">
					<use xlink:href="#SVGID_00000058559795576526889760000013090923477289611938_"  style="overflow:visible;"/>
				</clipPath>
				<g style="clip-path:url(#SVGID_00000183971678584991947230000018424561110555484349_);">
					<g>
						<path style="fill:#005264;" d="M-39.853-20.982c0,1.482-1.202,2.684-2.684,2.684c-1.483,0-2.684-1.202-2.684-2.684
							c0-1.482,1.202-2.684,2.684-2.684C-41.055-23.666-39.853-22.464-39.853-20.982z"/>
						<path style="fill:#005264;" d="M-39.853-4.633c0,1.482-1.202,2.684-2.684,2.684c-1.483,0-2.684-1.202-2.684-2.684
							s1.202-2.684,2.684-2.684C-41.055-7.317-39.853-6.115-39.853-4.633z"/>
						<path style="fill:#005264;" d="M-39.853,11.716c0,1.483-1.202,2.684-2.684,2.684c-1.483,0-2.684-1.202-2.684-2.684
							c0-1.482,1.202-2.684,2.684-2.684C-41.055,9.032-39.853,10.234-39.853,11.716z"/>
						<path style="fill:#005264;" d="M-39.853,28.065c0,1.482-1.202,2.684-2.684,2.684c-1.483,0-2.684-1.202-2.684-2.684
							c0-1.482,1.202-2.684,2.684-2.684C-41.055,25.381-39.853,26.583-39.853,28.065z"/>
						<path style="fill:#005264;" d="M-39.853,44.414c0,1.482-1.202,2.684-2.684,2.684c-1.483,0-2.684-1.202-2.684-2.684
							c0-1.482,1.202-2.684,2.684-2.684C-41.055,41.73-39.853,42.932-39.853,44.414z"/>
						<path style="fill:#005264;" d="M-39.853,60.763c0,1.482-1.202,2.684-2.684,2.684c-1.483,0-2.684-1.202-2.684-2.684
							c0-1.483,1.202-2.684,2.684-2.684C-41.055,58.079-39.853,59.281-39.853,60.763z"/>
					</g>
					<g>
						<path style="fill:#005264;" d="M-22.772-20.982c0,1.482-1.202,2.684-2.684,2.684c-1.483,0-2.684-1.202-2.684-2.684
							c0-1.482,1.202-2.684,2.684-2.684C-23.973-23.666-22.772-22.464-22.772-20.982z"/>
						<path style="fill:#005264;" d="M-22.772-4.633c0,1.482-1.202,2.684-2.684,2.684c-1.483,0-2.684-1.202-2.684-2.684
							s1.202-2.684,2.684-2.684C-23.973-7.317-22.772-6.115-22.772-4.633z"/>
						<path style="fill:#005264;" d="M-22.772,11.716c0,1.483-1.202,2.684-2.684,2.684c-1.483,0-2.684-1.202-2.684-2.684
							c0-1.482,1.202-2.684,2.684-2.684C-23.973,9.032-22.772,10.234-22.772,11.716z"/>
						<path style="fill:#005264;" d="M-22.772,28.065c0,1.482-1.202,2.684-2.684,2.684c-1.483,0-2.684-1.202-2.684-2.684
							c0-1.482,1.202-2.684,2.684-2.684C-23.973,25.381-22.772,26.583-22.772,28.065z"/>
						<path style="fill:#005264;" d="M-22.772,44.414c0,1.482-1.202,2.684-2.684,2.684c-1.483,0-2.684-1.202-2.684-2.684
							c0-1.482,1.202-2.684,2.684-2.684C-23.973,41.73-22.772,42.932-22.772,44.414z"/>
						<path style="fill:#005264;" d="M-22.772,60.763c0,1.482-1.202,2.684-2.684,2.684c-1.483,0-2.684-1.202-2.684-2.684
							c0-1.483,1.202-2.684,2.684-2.684C-23.973,58.079-22.772,59.281-22.772,60.763z"/>
					</g>
					<g>
						<circle style="fill:#005264;" cx="-8.375" cy="-20.982" r="2.684"/>
						
							<ellipse transform="matrix(0.0453 -0.999 0.999 0.0453 -3.367 -12.7891)" style="fill:#005264;" cx="-8.375" cy="-4.633" rx="2.684" ry="2.684"/>
						<path style="fill:#005264;" d="M-5.69,11.716c0,1.483-1.202,2.684-2.684,2.684s-2.684-1.202-2.684-2.684
							c0-1.482,1.202-2.684,2.684-2.684S-5.69,10.234-5.69,11.716z"/>
						<circle style="fill:#005264;" cx="-8.375" cy="28.065" r="2.684"/>
						<circle style="fill:#005264;" cx="-8.375" cy="44.414" r="2.684"/>
						<path style="fill:#005264;" d="M-5.69,60.763c0,1.482-1.202,2.684-2.684,2.684s-2.684-1.202-2.684-2.684
							c0-1.483,1.202-2.684,2.684-2.684S-5.69,59.281-5.69,60.763z"/>
					</g>
					<g>
						<circle style="fill:#005264;" cx="8.706" cy="-20.982" r="2.684"/>
						
							<ellipse transform="matrix(0.0453 -0.999 0.999 0.0453 12.94 4.2745)" style="fill:#005264;" cx="8.706" cy="-4.633" rx="2.684" ry="2.684"/>
						<path style="fill:#005264;" d="M11.391,11.716c0,1.483-1.202,2.684-2.684,2.684s-2.684-1.202-2.684-2.684
							c0-1.482,1.202-2.684,2.684-2.684S11.391,10.234,11.391,11.716z"/>
						<circle style="fill:#005264;" cx="8.706" cy="28.065" r="2.684"/>
						<circle style="fill:#005264;" cx="8.706" cy="44.414" r="2.684"/>
						<path style="fill:#005264;" d="M11.391,60.763c0,1.482-1.202,2.684-2.684,2.684s-2.684-1.202-2.684-2.684
							c0-1.483,1.202-2.684,2.684-2.684S11.391,59.281,11.391,60.763z"/>
					</g>
					<g>
						<circle style="fill:#005264;" cx="25.788" cy="-20.982" r="2.684"/>
						
							<ellipse transform="matrix(0.0453 -0.999 0.999 0.0453 29.2471 21.338)" style="fill:#005264;" cx="25.788" cy="-4.633" rx="2.684" ry="2.684"/>
						<path style="fill:#005264;" d="M28.472,11.716c0,1.483-1.202,2.684-2.684,2.684c-1.482,0-2.684-1.202-2.684-2.684
							c0-1.482,1.202-2.684,2.684-2.684C27.27,9.032,28.472,10.234,28.472,11.716z"/>
						<circle style="fill:#005264;" cx="25.788" cy="28.065" r="2.684"/>
						<circle style="fill:#005264;" cx="25.788" cy="44.414" r="2.684"/>
						<path style="fill:#005264;" d="M28.472,60.763c0,1.482-1.202,2.684-2.684,2.684c-1.482,0-2.684-1.202-2.684-2.684
							c0-1.483,1.202-2.684,2.684-2.684C27.27,58.079,28.472,59.281,28.472,60.763z"/>
					</g>
					<g>
						<path style="fill:#005264;" d="M45.553-20.982c0,1.482-1.202,2.684-2.684,2.684c-1.482,0-2.684-1.202-2.684-2.684
							c0-1.482,1.202-2.684,2.684-2.684C44.351-23.666,45.553-22.464,45.553-20.982z"/>
						<path style="fill:#005264;" d="M45.553-4.633c0,1.482-1.202,2.684-2.684,2.684c-1.482,0-2.684-1.202-2.684-2.684
							s1.202-2.684,2.684-2.684C44.351-7.317,45.553-6.115,45.553-4.633z"/>
						<path style="fill:#005264;" d="M45.553,11.716c0,1.483-1.202,2.684-2.684,2.684c-1.482,0-2.684-1.202-2.684-2.684
							c0-1.482,1.202-2.684,2.684-2.684C44.351,9.032,45.553,10.234,45.553,11.716z"/>
						<path style="fill:#005264;" d="M45.553,28.065c0,1.482-1.202,2.684-2.684,2.684c-1.482,0-2.684-1.202-2.684-2.684
							c0-1.482,1.202-2.684,2.684-2.684C44.351,25.381,45.553,26.583,45.553,28.065z"/>
						<path style="fill:#005264;" d="M45.553,44.414c0,1.482-1.202,2.684-2.684,2.684c-1.482,0-2.684-1.202-2.684-2.684
							c0-1.482,1.202-2.684,2.684-2.684C44.351,41.73,45.553,42.932,45.553,44.414z"/>
						<path style="fill:#005264;" d="M45.553,60.763c0,1.482-1.202,2.684-2.684,2.684c-1.482,0-2.684-1.202-2.684-2.684
							c0-1.483,1.202-2.684,2.684-2.684C44.351,58.079,45.553,59.281,45.553,60.763z"/>
					</g>
					<g>
						<path style="fill:#005264;" d="M62.634-20.982c0,1.482-1.202,2.684-2.684,2.684c-1.482,0-2.684-1.202-2.684-2.684
							c0-1.482,1.202-2.684,2.684-2.684C61.432-23.666,62.634-22.464,62.634-20.982z"/>
						<path style="fill:#005264;" d="M62.634-4.633c0,1.482-1.202,2.684-2.684,2.684c-1.482,0-2.684-1.202-2.684-2.684
							s1.202-2.684,2.684-2.684C61.432-7.317,62.634-6.115,62.634-4.633z"/>
						<path style="fill:#005264;" d="M62.634,11.716c0,1.483-1.202,2.684-2.684,2.684c-1.482,0-2.684-1.202-2.684-2.684
							c0-1.482,1.202-2.684,2.684-2.684C61.432,9.032,62.634,10.234,62.634,11.716z"/>
						<path style="fill:#005264;" d="M62.634,28.065c0,1.482-1.202,2.684-2.684,2.684c-1.482,0-2.684-1.202-2.684-2.684
							c0-1.482,1.202-2.684,2.684-2.684C61.432,25.381,62.634,26.583,62.634,28.065z"/>
						<path style="fill:#005264;" d="M62.634,44.414c0,1.482-1.202,2.684-2.684,2.684c-1.482,0-2.684-1.202-2.684-2.684
							c0-1.482,1.202-2.684,2.684-2.684C61.432,41.73,62.634,42.932,62.634,44.414z"/>
						<path style="fill:#005264;" d="M62.634,60.763c0,1.482-1.202,2.684-2.684,2.684c-1.482,0-2.684-1.202-2.684-2.684
							c0-1.483,1.202-2.684,2.684-2.684C61.432,58.079,62.634,59.281,62.634,60.763z"/>
					</g>
					<g>
						<path style="fill:#005264;" d="M79.715-20.982c0,1.482-1.202,2.684-2.684,2.684c-1.482,0-2.684-1.202-2.684-2.684
							c0-1.482,1.202-2.684,2.684-2.684C78.513-23.666,79.715-22.464,79.715-20.982z"/>
						<path style="fill:#005264;" d="M79.715-4.633c0,1.482-1.202,2.684-2.684,2.684c-1.482,0-2.684-1.202-2.684-2.684
							s1.202-2.684,2.684-2.684C78.513-7.317,79.715-6.115,79.715-4.633z"/>
						<path style="fill:#005264;" d="M79.715,11.716c0,1.483-1.202,2.684-2.684,2.684c-1.482,0-2.684-1.202-2.684-2.684
							c0-1.482,1.202-2.684,2.684-2.684C78.513,9.032,79.715,10.234,79.715,11.716z"/>
						<path style="fill:#005264;" d="M79.715,28.065c0,1.482-1.202,2.684-2.684,2.684c-1.482,0-2.684-1.202-2.684-2.684
							c0-1.482,1.202-2.684,2.684-2.684C78.513,25.381,79.715,26.583,79.715,28.065z"/>
						<path style="fill:#005264;" d="M79.715,44.414c0,1.482-1.202,2.684-2.684,2.684c-1.482,0-2.684-1.202-2.684-2.684
							c0-1.482,1.202-2.684,2.684-2.684C78.513,41.73,79.715,42.932,79.715,44.414z"/>
						<path style="fill:#005264;" d="M79.715,60.763c0,1.482-1.202,2.684-2.684,2.684c-1.482,0-2.684-1.202-2.684-2.684
							c0-1.483,1.202-2.684,2.684-2.684C78.513,58.079,79.715,59.281,79.715,60.763z"/>
					</g>
				</g>
			</g>
			<g>
				<defs>
					
						<ellipse id="SVGID_00000164476545293520433240000003036239250726124717_" transform="matrix(0.2268 -0.9739 0.9739 0.2268 347.7381 522.7644)" cx="503.101" cy="42.38" rx="30.737" ry="30.737"/>
				</defs>
				<clipPath id="SVGID_00000038405407730552749610000008220986193735602593_">
					<use xlink:href="#SVGID_00000164476545293520433240000003036239250726124717_"  style="overflow:visible;"/>
				</clipPath>
				<g style="clip-path:url(#SVGID_00000038405407730552749610000008220986193735602593_);">
					<g>
						<circle style="fill:#005264;" cx="465.874" cy="16.93" r="1.671"/>
						<circle style="fill:#005264;" cx="465.874" cy="27.11" r="1.671"/>
						<circle style="fill:#005264;" cx="465.874" cy="37.29" r="1.671"/>
						<circle style="fill:#005264;" cx="465.874" cy="47.471" r="1.671"/>
						<circle style="fill:#005264;" cx="465.874" cy="57.651" r="1.671"/>
						<circle style="fill:#005264;" cx="465.874" cy="67.831" r="1.671"/>
					</g>
					<g>
						<circle style="fill:#005264;" cx="476.51" cy="16.93" r="1.671"/>
						<circle style="fill:#005264;" cx="476.51" cy="27.11" r="1.671"/>
						<circle style="fill:#005264;" cx="476.51" cy="37.29" r="1.671"/>
						<circle style="fill:#005264;" cx="476.51" cy="47.471" r="1.671"/>
						<circle style="fill:#005264;" cx="476.51" cy="57.651" r="1.671"/>
						<circle style="fill:#005264;" cx="476.51" cy="67.831" r="1.671"/>
					</g>
					<g>
						<path style="fill:#005264;" d="M488.818,16.93c0,0.923-0.748,1.671-1.671,1.671c-0.923,0-1.671-0.748-1.671-1.671
							c0-0.923,0.748-1.671,1.671-1.671C488.069,15.258,488.818,16.007,488.818,16.93z"/>
						<path style="fill:#005264;" d="M488.818,27.11c0,0.923-0.748,1.671-1.671,1.671c-0.923,0-1.671-0.748-1.671-1.671
							c0-0.923,0.748-1.671,1.671-1.671C488.069,25.439,488.818,26.187,488.818,27.11z"/>
						<path style="fill:#005264;" d="M488.818,37.29c0,0.923-0.748,1.671-1.671,1.671c-0.923,0-1.671-0.748-1.671-1.671
							c0-0.923,0.748-1.671,1.671-1.671C488.069,35.619,488.818,36.367,488.818,37.29z"/>
						<path style="fill:#005264;" d="M488.818,47.471c0,0.923-0.748,1.671-1.671,1.671c-0.923,0-1.671-0.748-1.671-1.671
							s0.748-1.671,1.671-1.671C488.069,45.799,488.818,46.548,488.818,47.471z"/>
						<path style="fill:#005264;" d="M488.818,57.651c0,0.923-0.748,1.671-1.671,1.671c-0.923,0-1.671-0.748-1.671-1.671
							c0-0.923,0.748-1.671,1.671-1.671C488.069,55.979,488.818,56.728,488.818,57.651z"/>
						<path style="fill:#005264;" d="M488.818,67.831c0,0.923-0.748,1.671-1.671,1.671c-0.923,0-1.671-0.748-1.671-1.671
							s0.748-1.671,1.671-1.671C488.069,66.16,488.818,66.908,488.818,67.831z"/>
					</g>
					<g>
						<circle style="fill:#005264;" cx="497.783" cy="16.93" r="1.671"/>
						<circle style="fill:#005264;" cx="497.783" cy="27.11" r="1.671"/>
						<circle style="fill:#005264;" cx="497.783" cy="37.29" r="1.671"/>
						<circle style="fill:#005264;" cx="497.783" cy="47.471" r="1.671"/>
						<circle style="fill:#005264;" cx="497.783" cy="57.651" r="1.671"/>
						<circle style="fill:#005264;" cx="497.783" cy="67.831" r="1.671"/>
					</g>
					<g>
						<circle style="fill:#005264;" cx="508.419" cy="16.93" r="1.671"/>
						<circle style="fill:#005264;" cx="508.419" cy="27.11" r="1.671"/>
						<circle style="fill:#005264;" cx="508.419" cy="37.29" r="1.671"/>
						<circle style="fill:#005264;" cx="508.419" cy="47.471" r="1.671"/>
						<circle style="fill:#005264;" cx="508.419" cy="57.651" r="1.671"/>
						<circle style="fill:#005264;" cx="508.419" cy="67.831" r="1.671"/>
					</g>
					<g>
						<circle style="fill:#005264;" cx="519.055" cy="16.93" r="1.671"/>
						<circle style="fill:#005264;" cx="519.055" cy="27.11" r="1.671"/>
						<circle style="fill:#005264;" cx="519.055" cy="37.29" r="1.671"/>
						<circle style="fill:#005264;" cx="519.055" cy="47.471" r="1.671"/>
						<circle style="fill:#005264;" cx="519.055" cy="57.651" r="1.671"/>
						<circle style="fill:#005264;" cx="519.055" cy="67.831" r="1.671"/>
					</g>
					<g>
						<circle style="fill:#005264;" cx="529.691" cy="16.93" r="1.671"/>
						<circle style="fill:#005264;" cx="529.691" cy="27.11" r="1.671"/>
						<circle style="fill:#005264;" cx="529.691" cy="37.29" r="1.671"/>
						<circle style="fill:#005264;" cx="529.691" cy="47.471" r="1.671"/>
						<circle style="fill:#005264;" cx="529.691" cy="57.651" r="1.671"/>
						<circle style="fill:#005264;" cx="529.691" cy="67.831" r="1.671"/>
					</g>
					<g>
						<circle style="fill:#005264;" cx="540.327" cy="16.93" r="1.671"/>
						<circle style="fill:#005264;" cx="540.327" cy="27.11" r="1.671"/>
						<circle style="fill:#005264;" cx="540.327" cy="37.29" r="1.671"/>
						<circle style="fill:#005264;" cx="540.327" cy="47.471" r="1.671"/>
						<circle style="fill:#005264;" cx="540.327" cy="57.651" r="1.671"/>
						<circle style="fill:#005264;" cx="540.327" cy="67.831" r="1.671"/>
					</g>
				</g>
			</g>
			
				<ellipse transform="matrix(0.2205 -0.9754 0.9754 0.2205 -262.4039 603.4438)" style="fill:#FFFFFF;" cx="246.331" cy="465.89" rx="28.061" ry="28.061"/>
			<g>
				<defs>
					<circle id="SVGID_00000133499970718634018010000013309115641849254313_" cx="268.25" cy="458.866" r="30.737"/>
				</defs>
				<clipPath id="SVGID_00000053522685031134250100000000117813430308732848_">
					<use xlink:href="#SVGID_00000133499970718634018010000013309115641849254313_"  style="overflow:visible;"/>
				</clipPath>
				<g style="clip-path:url(#SVGID_00000053522685031134250100000000117813430308732848_);">
					<g>
						<circle style="fill:#005264;" cx="231.023" cy="433.415" r="1.671"/>
						<circle style="fill:#005264;" cx="231.023" cy="443.595" r="1.671"/>
						<circle style="fill:#005264;" cx="231.023" cy="453.775" r="1.671"/>
						<circle style="fill:#005264;" cx="231.023" cy="463.956" r="1.671"/>
						<circle style="fill:#005264;" cx="231.023" cy="474.136" r="1.671"/>
						<circle style="fill:#005264;" cx="231.023" cy="484.316" r="1.671"/>
					</g>
					<g>
						<circle style="fill:#005264;" cx="241.66" cy="433.415" r="1.671"/>
						<circle style="fill:#005264;" cx="241.66" cy="443.595" r="1.671"/>
						<circle style="fill:#005264;" cx="241.66" cy="453.775" r="1.671"/>
						<circle style="fill:#005264;" cx="241.66" cy="463.956" r="1.671"/>
						<circle style="fill:#005264;" cx="241.66" cy="474.136" r="1.671"/>
						<circle style="fill:#005264;" cx="241.66" cy="484.316" r="1.671"/>
					</g>
					<g>
						<circle style="fill:#005264;" cx="252.296" cy="433.415" r="1.671"/>
						<circle style="fill:#005264;" cx="252.296" cy="443.595" r="1.671"/>
						<circle style="fill:#005264;" cx="252.296" cy="453.775" r="1.671"/>
						<circle style="fill:#005264;" cx="252.296" cy="463.956" r="1.671"/>
						<circle style="fill:#005264;" cx="252.296" cy="474.136" r="1.671"/>
						<circle style="fill:#005264;" cx="252.296" cy="484.316" r="1.671"/>
					</g>
					<g>
						<circle style="fill:#005264;" cx="262.932" cy="433.415" r="1.671"/>
						<circle style="fill:#005264;" cx="262.932" cy="443.595" r="1.671"/>
						<circle style="fill:#005264;" cx="262.932" cy="453.775" r="1.671"/>
						<circle style="fill:#005264;" cx="262.932" cy="463.956" r="1.671"/>
						<circle style="fill:#005264;" cx="262.932" cy="474.136" r="1.671"/>
						<circle style="fill:#005264;" cx="262.932" cy="484.316" r="1.671"/>
					</g>
					<g>
						<circle style="fill:#005264;" cx="273.568" cy="433.415" r="1.671"/>
						<circle style="fill:#005264;" cx="273.568" cy="443.595" r="1.671"/>
						<circle style="fill:#005264;" cx="273.568" cy="453.775" r="1.671"/>
						<circle style="fill:#005264;" cx="273.568" cy="463.956" r="1.671"/>
						<circle style="fill:#005264;" cx="273.568" cy="474.136" r="1.671"/>
						<circle style="fill:#005264;" cx="273.568" cy="484.316" r="1.671"/>
					</g>
					<g>
						<circle style="fill:#005264;" cx="284.204" cy="433.415" r="1.671"/>
						<circle style="fill:#005264;" cx="284.204" cy="443.595" r="1.671"/>
						<circle style="fill:#005264;" cx="284.204" cy="453.775" r="1.671"/>
						<circle style="fill:#005264;" cx="284.204" cy="463.956" r="1.671"/>
						<circle style="fill:#005264;" cx="284.204" cy="474.136" r="1.671"/>
						<circle style="fill:#005264;" cx="284.204" cy="484.316" r="1.671"/>
					</g>
					<g>
						<path style="fill:#005264;" d="M296.512,433.415c0,0.923-0.748,1.671-1.671,1.671c-0.923,0-1.671-0.748-1.671-1.671
							s0.748-1.671,1.671-1.671C295.763,431.743,296.512,432.492,296.512,433.415z"/>
						<path style="fill:#005264;" d="M296.512,443.595c0,0.923-0.748,1.671-1.671,1.671c-0.923,0-1.671-0.748-1.671-1.671
							s0.748-1.671,1.671-1.671C295.763,441.924,296.512,442.672,296.512,443.595z"/>
						<path style="fill:#005264;" d="M296.512,453.775c0,0.923-0.748,1.671-1.671,1.671c-0.923,0-1.671-0.748-1.671-1.671
							s0.748-1.671,1.671-1.671C295.763,452.104,296.512,452.852,296.512,453.775z"/>
						<path style="fill:#005264;" d="M296.512,463.956c0,0.923-0.748,1.671-1.671,1.671c-0.923,0-1.671-0.748-1.671-1.671
							c0-0.923,0.748-1.671,1.671-1.671C295.763,462.284,296.512,463.033,296.512,463.956z"/>
						<path style="fill:#005264;" d="M296.512,474.136c0,0.923-0.748,1.671-1.671,1.671c-0.923,0-1.671-0.748-1.671-1.671
							c0-0.923,0.748-1.671,1.671-1.671C295.763,472.465,296.512,473.213,296.512,474.136z"/>
						<path style="fill:#005264;" d="M296.512,484.316c0,0.923-0.748,1.671-1.671,1.671c-0.923,0-1.671-0.748-1.671-1.671
							c0-0.923,0.748-1.671,1.671-1.671C295.763,482.645,296.512,483.393,296.512,484.316z"/>
					</g>
					<g>
						<circle style="fill:#005264;" cx="305.476" cy="433.415" r="1.671"/>
						<circle style="fill:#005264;" cx="305.476" cy="443.595" r="1.671"/>
						<circle style="fill:#005264;" cx="305.476" cy="453.775" r="1.671"/>
						<circle style="fill:#005264;" cx="305.476" cy="463.956" r="1.671"/>
						<circle style="fill:#005264;" cx="305.476" cy="474.136" r="1.671"/>
						<circle style="fill:#005264;" cx="305.476" cy="484.316" r="1.671"/>
					</g>
				</g>
			</g>
			<g>
				<polygon style="fill:#42B9A8;" points="13.159,137.954 24.141,137.954 18.65,129.05 				"/>
				<polygon style="fill:#42B9A8;" points="13.159,126.478 24.141,126.478 18.65,117.574 				"/>
				<polygon style="fill:#42B9A8;" points="13.159,115.002 24.141,115.002 18.65,106.098 				"/>
				<polygon style="fill:#42B9A8;" points="13.159,103.526 24.141,103.526 18.65,94.622 				"/>
				<polygon style="fill:#42B9A8;" points="13.159,92.049 24.141,92.049 18.65,83.146 				"/>
			</g>
			<g>
				<polygon style="fill:#FED047;" points="386.535,485.679 397.517,485.679 392.026,476.775 				"/>
				<polygon style="fill:#FED047;" points="386.535,474.203 397.517,474.203 392.026,465.299 				"/>
				<polygon style="fill:#FED047;" points="386.535,462.727 397.517,462.727 392.026,453.823 				"/>
				<polygon style="fill:#FED047;" points="386.535,451.25 397.517,451.25 392.026,442.347 				"/>
				<polygon style="fill:#FED047;" points="386.535,439.774 397.517,439.774 392.026,430.87 				"/>
			</g>
			<g>
				<g>
					<path style="fill:#005264;" d="M20.053,483.728c0,0.775-0.628,1.403-1.403,1.403c-0.775,0-1.403-0.628-1.403-1.403
						c0-0.775,0.628-1.403,1.403-1.403C19.425,482.325,20.053,482.953,20.053,483.728z"/>
					<circle style="fill:#005264;" cx="31.298" cy="483.728" r="1.403"/>
					<circle style="fill:#005264;" cx="43.947" cy="483.728" r="1.403"/>
					<circle style="fill:#005264;" cx="56.595" cy="483.728" r="1.403"/>
					<circle style="fill:#005264;" cx="69.244" cy="483.728" r="1.403"/>
					<circle style="fill:#005264;" cx="81.892" cy="483.728" r="1.403"/>
				</g>
				<g>
					<path style="fill:#005264;" d="M20.053,475.732c0,0.775-0.628,1.403-1.403,1.403c-0.775,0-1.403-0.628-1.403-1.403
						c0-0.775,0.628-1.403,1.403-1.403C19.425,474.329,20.053,474.957,20.053,475.732z"/>
					<circle style="fill:#005264;" cx="31.298" cy="475.732" r="1.403"/>
					<circle style="fill:#005264;" cx="43.947" cy="475.732" r="1.403"/>
					<circle style="fill:#005264;" cx="56.595" cy="475.732" r="1.403"/>
					<circle style="fill:#005264;" cx="69.244" cy="475.732" r="1.403"/>
					<circle style="fill:#005264;" cx="81.892" cy="475.732" r="1.403"/>
				</g>
				<g>
					<path style="fill:#005264;" d="M20.053,467.737c0,0.775-0.628,1.403-1.403,1.403c-0.775,0-1.403-0.628-1.403-1.403
						c0-0.775,0.628-1.403,1.403-1.403C19.425,466.333,20.053,466.962,20.053,467.737z"/>
					<path style="fill:#005264;" d="M32.701,467.737c0,0.775-0.628,1.403-1.403,1.403c-0.775,0-1.403-0.628-1.403-1.403
						c0-0.775,0.628-1.403,1.403-1.403C32.073,466.333,32.701,466.962,32.701,467.737z"/>
					<path style="fill:#005264;" d="M45.35,467.737c0,0.775-0.628,1.403-1.403,1.403c-0.775,0-1.403-0.628-1.403-1.403
						c0-0.775,0.628-1.403,1.403-1.403C44.722,466.333,45.35,466.962,45.35,467.737z"/>
					<path style="fill:#005264;" d="M57.998,467.737c0,0.775-0.628,1.403-1.403,1.403c-0.775,0-1.403-0.628-1.403-1.403
						c0-0.775,0.628-1.403,1.403-1.403C57.37,466.333,57.998,466.962,57.998,467.737z"/>
					<path style="fill:#005264;" d="M70.647,467.737c0,0.775-0.628,1.403-1.403,1.403c-0.775,0-1.403-0.628-1.403-1.403
						c0-0.775,0.628-1.403,1.403-1.403C70.019,466.333,70.647,466.962,70.647,467.737z"/>
					<path style="fill:#005264;" d="M83.295,467.737c0,0.775-0.628,1.403-1.403,1.403c-0.775,0-1.403-0.628-1.403-1.403
						c0-0.775,0.628-1.403,1.403-1.403C82.667,466.333,83.295,466.962,83.295,467.737z"/>
				</g>
			</g>
			<g>
				<path style="fill:#42B9A8;" d="M40.192,370.602c-55.172,0-99.895,44.722-99.895,99.895c0,55.172,44.722,99.895,99.895,99.895
					c55.164,0,99.886-44.722,99.886-99.895C140.078,415.324,95.356,370.602,40.192,370.602z M40.192,533.753
					c-34.94,0-63.257-28.316-63.257-63.257c0-34.931,28.316-63.257,63.257-63.257c34.932,0,63.257,28.325,63.257,63.257
					C103.449,505.437,75.124,533.753,40.192,533.753z"/>
				
					<ellipse transform="matrix(0.7071 -0.7071 0.7071 0.7071 -320.9205 166.2223)" style="fill:none;stroke:#D2F5EF;stroke-miterlimit:10;" cx="40.188" cy="470.496" rx="82.371" ry="82.371"/>
			</g>
			
				<ellipse transform="matrix(0.7071 -0.7071 0.7071 0.7071 -175.6303 88.1986)" style="fill:#FFFFFF;" cx="18.65" cy="256.104" rx="33.083" ry="33.083"/>
			<g>
				
					<path style="fill:none;stroke:#005264;stroke-width:0.75;stroke-linecap:round;stroke-linejoin:round;stroke-miterlimit:10;" d="
					M-48.083,164.036H70.349c28.834,0,52.209,23.375,52.209,52.209v0c0,28.834-23.375,52.209-52.209,52.209H-48.083"/>
				
					<path style="fill:none;stroke:#005264;stroke-width:0.75;stroke-linecap:round;stroke-linejoin:round;stroke-miterlimit:10;" d="
					M-48.083,173.212h9.176H70.349c23.729,0,43.034,19.305,43.034,43.033c0,23.729-19.305,43.034-43.034,43.034H-38.907h-9.176"/>
				
					<path style="fill:none;stroke:#005264;stroke-width:0.75;stroke-linecap:round;stroke-linejoin:round;stroke-miterlimit:10;" d="
					M-48.083,182.388h18.351H70.349c18.67,0,33.858,15.189,33.858,33.858c0,18.669-15.189,33.858-33.858,33.858H-29.732h-18.351"/>
				
					<path style="fill:none;stroke:#005264;stroke-width:0.75;stroke-linecap:round;stroke-linejoin:round;stroke-miterlimit:10;" d="
					M-48.083,191.564h27.527h90.905c13.61,0,24.682,11.072,24.682,24.682c0,13.61-11.073,24.682-24.682,24.682h-90.905h-27.527"/>
			</g>
			<g>
				
					<path style="fill:none;stroke:#005264;stroke-width:0.75;stroke-linecap:round;stroke-linejoin:round;stroke-miterlimit:10;" d="
					M265.486-101.389V17.043c0,28.834-23.375,52.209-52.209,52.209h0c-28.834,0-52.209-23.375-52.209-52.209v-118.432"/>
				
					<path style="fill:none;stroke:#005264;stroke-width:0.75;stroke-linecap:round;stroke-linejoin:round;stroke-miterlimit:10;" d="
					M256.31-101.389v9.176V17.043c0,23.729-19.305,43.034-43.033,43.034c-23.729,0-43.034-19.305-43.034-43.034V-92.214v-9.176"/>
				
					<path style="fill:none;stroke:#005264;stroke-width:0.75;stroke-linecap:round;stroke-linejoin:round;stroke-miterlimit:10;" d="
					M247.135-101.389v18.351V17.043c0,18.67-15.189,33.858-33.858,33.858c-18.669,0-33.858-15.188-33.858-33.858V-83.038v-18.351"/>
				
					<path style="fill:none;stroke:#005264;stroke-width:0.75;stroke-linecap:round;stroke-linejoin:round;stroke-miterlimit:10;" d="
					M237.959-101.389v27.527v90.905c0,13.61-11.072,24.682-24.682,24.682c-13.61,0-24.682-11.073-24.682-24.682v-90.905v-27.527"/>
			</g>
			
				<ellipse transform="matrix(0.7071 -0.7071 0.7071 0.7071 -230.4249 235.6284)" style="fill:none;stroke:#005264;stroke-width:0.75;stroke-linecap:round;stroke-linejoin:round;stroke-miterlimit:10;" cx="169.216" cy="395.962" rx="12.251" ry="12.251"/>
			<g>
				<circle style="fill:#42B9A8;" cx="175.349" cy="151.847" r="28.34"/>
				<circle style="fill:none;stroke:#D2F5EF;stroke-miterlimit:10;" cx="175.349" cy="151.847" r="18.383"/>
				<circle style="fill:none;stroke:#D2F5EF;stroke-miterlimit:10;" cx="175.349" cy="151.847" r="7.128"/>
			</g>
			
				<circle style="fill:none;stroke:#005264;stroke-width:0.75;stroke-linecap:round;stroke-linejoin:round;stroke-miterlimit:10;" cx="63.509" cy="115.002" r="5.734"/>
			
				<circle style="fill:none;stroke:#005264;stroke-width:0.75;stroke-linecap:round;stroke-linejoin:round;stroke-miterlimit:10;" cx="453.12" cy="106.098" r="5.735"/>
			
				<circle style="fill:none;stroke:#005264;stroke-width:0.75;stroke-linecap:round;stroke-linejoin:round;stroke-miterlimit:10;" cx="256.31" cy="394.628" r="5.734"/>
			<path style="fill:#42B9A8;" d="M562.401-40.118L562.401-40.118c6.766,0,12.25,5.485,12.25,12.251v133.656
				c0,6.766-5.485,12.25-12.25,12.25l0,0c-6.766,0-12.251-5.485-12.251-12.25V-27.868C550.15-34.634,555.635-40.118,562.401-40.118z
				"/>
			<circle style="fill:#42B9A8;" cx="679.353" cy="284.311" r="63.841"/>
			
				<ellipse transform="matrix(0.227 -0.9739 0.9739 0.227 2.7694 890.5581)" style="fill:#FFFFFF;" cx="562.401" cy="443.534" rx="28.061" ry="28.061"/>
			<path style="fill:#FED047;" d="M604.418,193.928c12.716,0,23.023-10.307,23.023-23.023c0-12.716-10.307-23.024-23.023-23.024
				c-12.716,0-23.023,10.307-23.023,23.024C581.394,183.62,591.701,193.928,604.418,193.928z M604.418,157.974
				c7.141,0,12.93,5.79,12.93,12.93c0,7.141-5.79,12.93-12.93,12.93c-7.141,0-12.93-5.79-12.93-12.93
				C591.487,163.764,597.277,157.974,604.418,157.974z"/>
			<path style="fill:#42B9A8;" d="M330.579,73.007c7.142,0,12.93-5.789,12.93-12.93s-5.789-12.93-12.93-12.93
				c-7.142,0-12.93,5.789-12.93,12.93S323.438,73.007,330.579,73.007z M330.579,52.815c4.01,0,7.262,3.252,7.262,7.262
				c0,4.01-3.252,7.262-7.262,7.262c-4.01,0-7.262-3.252-7.262-7.262C323.317,56.066,326.569,52.815,330.579,52.815z"/>
			<path style="fill:#FFFFFF;" d="M442.215,420.17c7.142,0,12.93-5.789,12.93-12.93c0-7.142-5.789-12.93-12.93-12.93
				c-7.142,0-12.93,5.789-12.93,12.93C429.285,414.382,435.074,420.17,442.215,420.17z M442.215,399.978
				c4.01,0,7.262,3.252,7.262,7.262c0,4.01-3.252,7.262-7.262,7.262c-4.01,0-7.262-3.252-7.262-7.262
				C434.954,403.23,438.205,399.978,442.215,399.978z"/>
			<path style="fill:#42B9A8;" d="M484.514,543.69c27.921,0,50.553-22.632,50.553-50.553c0-27.921-22.632-50.553-50.553-50.553
				s-50.553,22.632-50.553,50.553C433.961,521.058,456.593,543.69,484.514,543.69z M484.514,464.746
				c15.679,0,28.392,12.713,28.392,28.391c0,15.679-12.713,28.392-28.392,28.392c-15.679,0-28.391-12.713-28.391-28.392
				C456.122,477.458,468.835,464.746,484.514,464.746z"/>
			<path style="fill:#FFFFFF;" d="M728.711-23.35L728.711-23.35c16.814,0,30.444,13.63,30.444,30.444v158.492
				c0,16.814-13.63,30.444-30.444,30.444h0c-16.814,0-30.444-13.63-30.444-30.444V7.094C698.267-9.72,711.897-23.35,728.711-23.35z"
				/>
			<path style="fill:#FED047;" d="M645.793,396.474L645.793,396.474c14.817,0,26.828,12.011,26.828,26.828v139.668
				c0,14.817-12.011,26.828-26.828,26.828l0,0c-14.817,0-26.828-12.012-26.828-26.828V423.303
				C618.964,408.486,630.976,396.474,645.793,396.474z"/>
			<path style="fill:none;stroke:#005264;stroke-width:0.75;stroke-linecap:round;stroke-linejoin:round;stroke-miterlimit:10;" d="
				M374.791-142.53L374.791-142.53c14.817,0,26.828,12.012,26.828,26.828V23.967c0,14.817-12.011,26.828-26.828,26.828h0
				c-14.817,0-26.828-12.011-26.828-26.828v-139.669C347.963-130.518,359.974-142.53,374.791-142.53z"/>
			<path style="fill:none;stroke:#005264;stroke-width:0.75;stroke-linecap:round;stroke-linejoin:round;stroke-miterlimit:10;" d="
				M618.964,374.695L618.964,374.695c6.766,0,12.251,5.485,12.251,12.25v133.656c0,6.766-5.485,12.25-12.251,12.25l0,0
				c-6.766,0-12.251-5.485-12.251-12.25V386.946C606.714,380.18,612.198,374.695,618.964,374.695z"/>
			<path style="fill:none;stroke:#005264;stroke-width:0.75;stroke-linecap:round;stroke-linejoin:round;stroke-miterlimit:10;" d="
				M323.317,421.026L323.317,421.026c6.766,0,12.251,5.485,12.251,12.25v133.656c0,6.766-5.485,12.251-12.251,12.251l0,0
				c-6.766,0-12.251-5.485-12.251-12.251V433.276C311.067,426.51,316.551,421.026,323.317,421.026z"/>
			<path style="fill:none;stroke:#005264;stroke-width:0.75;stroke-linecap:round;stroke-linejoin:round;stroke-miterlimit:10;" d="
				M580.784-79.182L580.784-79.182c6.766,0,12.251,5.485,12.251,12.251V66.724c0,6.766-5.485,12.251-12.25,12.251h0
				c-6.766,0-12.25-5.485-12.25-12.251V-66.932C568.533-73.697,574.018-79.182,580.784-79.182z"/>
			<g>
				
					<line style="fill:none;stroke:#005264;stroke-width:2.6934;stroke-miterlimit:10;" x1="675.809" y1="155.362" x2="663.212" y2="167.959"/>
				
					<line style="fill:none;stroke:#005264;stroke-width:2.6934;stroke-miterlimit:10;" x1="675.809" y1="167.959" x2="663.212" y2="155.362"/>
			</g>
			<g>
				
					<line style="fill:none;stroke:#005264;stroke-width:2.6934;stroke-miterlimit:10;" x1="675.809" y1="181.33" x2="663.212" y2="193.928"/>
				
					<line style="fill:none;stroke:#005264;stroke-width:2.6934;stroke-miterlimit:10;" x1="675.809" y1="193.928" x2="663.212" y2="181.33"/>
			</g>
			<g>
				
					<line style="fill:none;stroke:#005264;stroke-width:2.6934;stroke-miterlimit:10;" x1="534.339" y1="394.628" x2="521.742" y2="407.225"/>
				
					<line style="fill:none;stroke:#005264;stroke-width:2.6934;stroke-miterlimit:10;" x1="534.339" y1="407.225" x2="521.742" y2="394.628"/>
			</g>
			<g>
				<defs>
					<circle id="SVGID_00000036241321898448326240000017941291285637619844_" cx="732.753" cy="480.109" r="49.362"/>
				</defs>
				<clipPath id="SVGID_00000045588324824295388170000014705306852665302961_">
					<use xlink:href="#SVGID_00000036241321898448326240000017941291285637619844_"  style="overflow:visible;"/>
				</clipPath>
				<g style="clip-path:url(#SVGID_00000045588324824295388170000014705306852665302961_);">
					<g>
						<path style="fill:#005264;" d="M789.853,520.982c0-1.482,1.202-2.684,2.684-2.684c1.483,0,2.684,1.202,2.684,2.684
							s-1.202,2.684-2.684,2.684C791.055,523.666,789.853,522.464,789.853,520.982z"/>
						<path style="fill:#005264;" d="M789.853,504.633c0-1.482,1.202-2.684,2.684-2.684c1.483,0,2.684,1.202,2.684,2.684
							c0,1.482-1.202,2.684-2.684,2.684C791.055,507.317,789.853,506.115,789.853,504.633z"/>
						<path style="fill:#005264;" d="M789.853,488.284c0-1.483,1.202-2.684,2.684-2.684c1.483,0,2.684,1.202,2.684,2.684
							c0,1.482-1.202,2.684-2.684,2.684C791.055,490.968,789.853,489.766,789.853,488.284z"/>
						<path style="fill:#005264;" d="M789.853,471.935c0-1.482,1.202-2.684,2.684-2.684c1.483,0,2.684,1.202,2.684,2.684
							c0,1.482-1.202,2.684-2.684,2.684C791.055,474.619,789.853,473.417,789.853,471.935z"/>
						<path style="fill:#005264;" d="M789.853,455.586c0-1.482,1.202-2.684,2.684-2.684c1.483,0,2.684,1.202,2.684,2.684
							c0,1.482-1.202,2.684-2.684,2.684C791.055,458.27,789.853,457.068,789.853,455.586z"/>
						<path style="fill:#005264;" d="M789.853,439.237c0-1.482,1.202-2.684,2.684-2.684c1.483,0,2.684,1.202,2.684,2.684
							c0,1.482-1.202,2.684-2.684,2.684C791.055,441.921,789.853,440.719,789.853,439.237z"/>
					</g>
					<g>
						<path style="fill:#005264;" d="M772.772,520.982c0-1.482,1.202-2.684,2.684-2.684c1.482,0,2.684,1.202,2.684,2.684
							s-1.202,2.684-2.684,2.684C773.973,523.666,772.772,522.464,772.772,520.982z"/>
						<path style="fill:#005264;" d="M772.772,504.633c0-1.482,1.202-2.684,2.684-2.684c1.482,0,2.684,1.202,2.684,2.684
							c0,1.482-1.202,2.684-2.684,2.684C773.973,507.317,772.772,506.115,772.772,504.633z"/>
						<path style="fill:#005264;" d="M772.772,488.284c0-1.483,1.202-2.684,2.684-2.684c1.482,0,2.684,1.202,2.684,2.684
							c0,1.482-1.202,2.684-2.684,2.684C773.973,490.968,772.772,489.766,772.772,488.284z"/>
						<path style="fill:#005264;" d="M772.772,471.935c0-1.482,1.202-2.684,2.684-2.684c1.482,0,2.684,1.202,2.684,2.684
							c0,1.482-1.202,2.684-2.684,2.684C773.973,474.619,772.772,473.417,772.772,471.935z"/>
						<path style="fill:#005264;" d="M772.772,455.586c0-1.482,1.202-2.684,2.684-2.684c1.482,0,2.684,1.202,2.684,2.684
							c0,1.482-1.202,2.684-2.684,2.684C773.973,458.27,772.772,457.068,772.772,455.586z"/>
						<path style="fill:#005264;" d="M772.772,439.237c0-1.482,1.202-2.684,2.684-2.684c1.482,0,2.684,1.202,2.684,2.684
							c0,1.482-1.202,2.684-2.684,2.684C773.973,441.921,772.772,440.719,772.772,439.237z"/>
					</g>
					<g>
						<circle style="fill:#005264;" cx="758.375" cy="520.982" r="2.684"/>
						<circle style="fill:#005264;" cx="758.375" cy="504.633" r="2.684"/>
						<path style="fill:#005264;" d="M755.69,488.284c0-1.483,1.202-2.684,2.684-2.684c1.482,0,2.684,1.202,2.684,2.684
							c0,1.482-1.202,2.684-2.684,2.684C756.892,490.968,755.69,489.766,755.69,488.284z"/>
						<circle style="fill:#005264;" cx="758.375" cy="471.935" r="2.684"/>
						<circle style="fill:#005264;" cx="758.375" cy="455.586" r="2.684"/>
						<path style="fill:#005264;" d="M755.69,439.237c0-1.482,1.202-2.684,2.684-2.684c1.482,0,2.684,1.202,2.684,2.684
							c0,1.482-1.202,2.684-2.684,2.684C756.892,441.921,755.69,440.719,755.69,439.237z"/>
					</g>
					<g>
						<circle style="fill:#005264;" cx="741.294" cy="520.982" r="2.684"/>
						<circle style="fill:#005264;" cx="741.294" cy="504.633" r="2.684"/>
						<path style="fill:#005264;" d="M738.609,488.284c0-1.483,1.202-2.684,2.684-2.684s2.684,1.202,2.684,2.684
							c0,1.482-1.202,2.684-2.684,2.684S738.609,489.766,738.609,488.284z"/>
						<circle style="fill:#005264;" cx="741.294" cy="471.935" r="2.684"/>
						<circle style="fill:#005264;" cx="741.294" cy="455.586" r="2.684"/>
						<path style="fill:#005264;" d="M738.609,439.237c0-1.482,1.202-2.684,2.684-2.684s2.684,1.202,2.684,2.684
							c0,1.482-1.202,2.684-2.684,2.684S738.609,440.719,738.609,439.237z"/>
					</g>
					<g>
						<circle style="fill:#005264;" cx="724.212" cy="520.982" r="2.684"/>
						<circle style="fill:#005264;" cx="724.212" cy="504.633" r="2.684"/>
						<path style="fill:#005264;" d="M721.528,488.284c0-1.483,1.202-2.684,2.684-2.684c1.482,0,2.684,1.202,2.684,2.684
							c0,1.482-1.202,2.684-2.684,2.684C722.73,490.968,721.528,489.766,721.528,488.284z"/>
						<circle style="fill:#005264;" cx="724.212" cy="471.935" r="2.684"/>
						<circle style="fill:#005264;" cx="724.212" cy="455.586" r="2.684"/>
						<path style="fill:#005264;" d="M721.528,439.237c0-1.482,1.202-2.684,2.684-2.684c1.482,0,2.684,1.202,2.684,2.684
							c0,1.482-1.202,2.684-2.684,2.684C722.73,441.921,721.528,440.719,721.528,439.237z"/>
					</g>
					<g>
						<path style="fill:#005264;" d="M704.447,520.982c0-1.482,1.202-2.684,2.684-2.684c1.482,0,2.684,1.202,2.684,2.684
							s-1.202,2.684-2.684,2.684C705.649,523.666,704.447,522.464,704.447,520.982z"/>
						<path style="fill:#005264;" d="M704.447,504.633c0-1.482,1.202-2.684,2.684-2.684c1.482,0,2.684,1.202,2.684,2.684
							c0,1.482-1.202,2.684-2.684,2.684C705.649,507.317,704.447,506.115,704.447,504.633z"/>
						<path style="fill:#005264;" d="M704.447,488.284c0-1.483,1.202-2.684,2.684-2.684c1.482,0,2.684,1.202,2.684,2.684
							c0,1.482-1.202,2.684-2.684,2.684C705.649,490.968,704.447,489.766,704.447,488.284z"/>
						<path style="fill:#005264;" d="M704.447,471.935c0-1.482,1.202-2.684,2.684-2.684c1.482,0,2.684,1.202,2.684,2.684
							c0,1.482-1.202,2.684-2.684,2.684C705.649,474.619,704.447,473.417,704.447,471.935z"/>
						<path style="fill:#005264;" d="M704.447,455.586c0-1.482,1.202-2.684,2.684-2.684c1.482,0,2.684,1.202,2.684,2.684
							c0,1.482-1.202,2.684-2.684,2.684C705.649,458.27,704.447,457.068,704.447,455.586z"/>
						<path style="fill:#005264;" d="M704.447,439.237c0-1.482,1.202-2.684,2.684-2.684c1.482,0,2.684,1.202,2.684,2.684
							c0,1.482-1.202,2.684-2.684,2.684C705.649,441.921,704.447,440.719,704.447,439.237z"/>
					</g>
					<g>
						<path style="fill:#005264;" d="M687.366,520.982c0-1.482,1.202-2.684,2.684-2.684c1.483,0,2.684,1.202,2.684,2.684
							s-1.202,2.684-2.684,2.684C688.568,523.666,687.366,522.464,687.366,520.982z"/>
						<path style="fill:#005264;" d="M687.366,504.633c0-1.482,1.202-2.684,2.684-2.684c1.483,0,2.684,1.202,2.684,2.684
							c0,1.482-1.202,2.684-2.684,2.684C688.568,507.317,687.366,506.115,687.366,504.633z"/>
						<path style="fill:#005264;" d="M687.366,488.284c0-1.483,1.202-2.684,2.684-2.684c1.483,0,2.684,1.202,2.684,2.684
							c0,1.482-1.202,2.684-2.684,2.684C688.568,490.968,687.366,489.766,687.366,488.284z"/>
						<path style="fill:#005264;" d="M687.366,471.935c0-1.482,1.202-2.684,2.684-2.684c1.483,0,2.684,1.202,2.684,2.684
							c0,1.482-1.202,2.684-2.684,2.684C688.568,474.619,687.366,473.417,687.366,471.935z"/>
						<path style="fill:#005264;" d="M687.366,455.586c0-1.482,1.202-2.684,2.684-2.684c1.483,0,2.684,1.202,2.684,2.684
							c0,1.482-1.202,2.684-2.684,2.684C688.568,458.27,687.366,457.068,687.366,455.586z"/>
						<path style="fill:#005264;" d="M687.366,439.237c0-1.482,1.202-2.684,2.684-2.684c1.483,0,2.684,1.202,2.684,2.684
							c0,1.482-1.202,2.684-2.684,2.684C688.568,441.921,687.366,440.719,687.366,439.237z"/>
					</g>
					<g>
						<path style="fill:#005264;" d="M670.285,520.982c0-1.482,1.202-2.684,2.684-2.684c1.482,0,2.684,1.202,2.684,2.684
							s-1.202,2.684-2.684,2.684C671.487,523.666,670.285,522.464,670.285,520.982z"/>
						<path style="fill:#005264;" d="M670.285,504.633c0-1.482,1.202-2.684,2.684-2.684c1.482,0,2.684,1.202,2.684,2.684
							c0,1.482-1.202,2.684-2.684,2.684C671.487,507.317,670.285,506.115,670.285,504.633z"/>
						<path style="fill:#005264;" d="M670.285,488.284c0-1.483,1.202-2.684,2.684-2.684c1.482,0,2.684,1.202,2.684,2.684
							c0,1.482-1.202,2.684-2.684,2.684C671.487,490.968,670.285,489.766,670.285,488.284z"/>
						<path style="fill:#005264;" d="M670.285,471.935c0-1.482,1.202-2.684,2.684-2.684c1.482,0,2.684,1.202,2.684,2.684
							c0,1.482-1.202,2.684-2.684,2.684C671.487,474.619,670.285,473.417,670.285,471.935z"/>
						<path style="fill:#005264;" d="M670.285,455.586c0-1.482,1.202-2.684,2.684-2.684c1.482,0,2.684,1.202,2.684,2.684
							c0,1.482-1.202,2.684-2.684,2.684C671.487,458.27,670.285,457.068,670.285,455.586z"/>
						<path style="fill:#005264;" d="M670.285,439.237c0-1.482,1.202-2.684,2.684-2.684c1.482,0,2.684,1.202,2.684,2.684
							c0,1.482-1.202,2.684-2.684,2.684C671.487,441.921,670.285,440.719,670.285,439.237z"/>
					</g>
				</g>
			</g>
			<g>
				<polygon style="fill:#42B9A8;" points="736.841,362.046 725.859,362.046 731.35,370.95 				"/>
				<polygon style="fill:#42B9A8;" points="736.841,373.522 725.859,373.522 731.35,382.426 				"/>
				<polygon style="fill:#42B9A8;" points="736.841,384.998 725.859,384.998 731.35,393.902 				"/>
				<polygon style="fill:#42B9A8;" points="736.841,396.474 725.859,396.474 731.35,405.378 				"/>
				<polygon style="fill:#42B9A8;" points="736.841,407.951 725.859,407.951 731.35,416.854 				"/>
			</g>
			<g>
				<g>
					<path style="fill:#005264;" d="M729.947,16.272c0-0.775,0.628-1.403,1.403-1.403c0.775,0,1.403,0.628,1.403,1.403
						c0,0.775-0.628,1.403-1.403,1.403C730.575,17.675,729.947,17.047,729.947,16.272z"/>
					<circle style="fill:#005264;" cx="718.702" cy="16.272" r="1.403"/>
					<circle style="fill:#005264;" cx="706.053" cy="16.272" r="1.403"/>
					<circle style="fill:#005264;" cx="693.405" cy="16.272" r="1.403"/>
					<circle style="fill:#005264;" cx="680.756" cy="16.272" r="1.403"/>
					<circle style="fill:#005264;" cx="668.108" cy="16.272" r="1.403"/>
				</g>
				<g>
					<path style="fill:#005264;" d="M729.947,24.268c0-0.775,0.628-1.403,1.403-1.403c0.775,0,1.403,0.628,1.403,1.403
						c0,0.775-0.628,1.403-1.403,1.403C730.575,25.671,729.947,25.043,729.947,24.268z"/>
					<circle style="fill:#005264;" cx="718.702" cy="24.268" r="1.403"/>
					<circle style="fill:#005264;" cx="706.053" cy="24.268" r="1.403"/>
					<circle style="fill:#005264;" cx="693.405" cy="24.268" r="1.403"/>
					<circle style="fill:#005264;" cx="680.756" cy="24.268" r="1.403"/>
					<circle style="fill:#005264;" cx="668.108" cy="24.268" r="1.403"/>
				</g>
				<g>
					<path style="fill:#005264;" d="M729.947,32.264c0-0.775,0.628-1.403,1.403-1.403c0.775,0,1.403,0.628,1.403,1.403
						c0,0.775-0.628,1.403-1.403,1.403C730.575,33.667,729.947,33.038,729.947,32.264z"/>
					<path style="fill:#005264;" d="M717.299,32.264c0-0.775,0.628-1.403,1.403-1.403c0.775,0,1.403,0.628,1.403,1.403
						c0,0.775-0.628,1.403-1.403,1.403C717.927,33.667,717.299,33.038,717.299,32.264z"/>
					<path style="fill:#005264;" d="M704.65,32.264c0-0.775,0.628-1.403,1.403-1.403c0.775,0,1.403,0.628,1.403,1.403
						c0,0.775-0.628,1.403-1.403,1.403C705.278,33.667,704.65,33.038,704.65,32.264z"/>
					<path style="fill:#005264;" d="M692.002,32.264c0-0.775,0.628-1.403,1.403-1.403c0.775,0,1.403,0.628,1.403,1.403
						c0,0.775-0.628,1.403-1.403,1.403C692.63,33.667,692.002,33.038,692.002,32.264z"/>
					<path style="fill:#005264;" d="M679.353,32.264c0-0.775,0.628-1.403,1.403-1.403c0.775,0,1.403,0.628,1.403,1.403
						c0,0.775-0.628,1.403-1.403,1.403C679.981,33.667,679.353,33.038,679.353,32.264z"/>
					<path style="fill:#005264;" d="M666.705,32.264c0-0.775,0.628-1.403,1.403-1.403c0.775,0,1.403,0.628,1.403,1.403
						c0,0.775-0.628,1.403-1.403,1.403C667.333,33.667,666.705,33.038,666.705,32.264z"/>
				</g>
			</g>
			<g>
				<g>
					<path style="fill:#005264;" d="M205.567,268.983c0-0.775,0.628-1.403,1.403-1.403c0.775,0,1.403,0.628,1.403,1.403
						c0,0.775-0.628,1.403-1.403,1.403C206.195,270.386,205.567,269.758,205.567,268.983z"/>
					<circle style="fill:#005264;" cx="194.321" cy="268.983" r="1.403"/>
					<circle style="fill:#005264;" cx="181.673" cy="268.983" r="1.403"/>
					<circle style="fill:#005264;" cx="169.024" cy="268.983" r="1.403"/>
					<path style="fill:#005264;" d="M154.973,268.983c0-0.775,0.628-1.403,1.403-1.403c0.775,0,1.403,0.628,1.403,1.403
						c0,0.775-0.628,1.403-1.403,1.403C155.601,270.386,154.973,269.758,154.973,268.983z"/>
					<circle style="fill:#005264;" cx="143.727" cy="268.983" r="1.403"/>
				</g>
				<g>
					<path style="fill:#005264;" d="M205.567,276.979c0-0.775,0.628-1.403,1.403-1.403c0.775,0,1.403,0.628,1.403,1.403
						c0,0.775-0.628,1.403-1.403,1.403C206.195,278.382,205.567,277.754,205.567,276.979z"/>
					<circle style="fill:#005264;" cx="194.321" cy="276.979" r="1.403"/>
					<circle style="fill:#005264;" cx="181.673" cy="276.979" r="1.403"/>
					<circle style="fill:#005264;" cx="169.024" cy="276.979" r="1.403"/>
					<path style="fill:#005264;" d="M154.973,276.979c0-0.775,0.628-1.403,1.403-1.403c0.775,0,1.403,0.628,1.403,1.403
						c0,0.775-0.628,1.403-1.403,1.403C155.601,278.382,154.973,277.754,154.973,276.979z"/>
					<circle style="fill:#005264;" cx="143.727" cy="276.979" r="1.403"/>
				</g>
				<g>
					<path style="fill:#005264;" d="M205.567,284.975c0-0.775,0.628-1.403,1.403-1.403c0.775,0,1.403,0.628,1.403,1.403
						c0,0.775-0.628,1.403-1.403,1.403C206.195,286.378,205.567,285.75,205.567,284.975z"/>
					<circle style="fill:#005264;" cx="194.321" cy="284.975" r="1.403"/>
					<circle style="fill:#005264;" cx="181.673" cy="284.975" r="1.403"/>
					<circle style="fill:#005264;" cx="169.024" cy="284.975" r="1.403"/>
					<path style="fill:#005264;" d="M154.973,284.975c0-0.775,0.628-1.403,1.403-1.403c0.775,0,1.403,0.628,1.403,1.403
						c0,0.775-0.628,1.403-1.403,1.403C155.601,286.378,154.973,285.75,154.973,284.975z"/>
					<circle style="fill:#005264;" cx="143.727" cy="284.975" r="1.403"/>
				</g>
			</g>
			<g>
				<g>
					<circle style="fill:#005264;" cx="599.145" cy="212.475" r="1.403"/>
					<path style="fill:#005264;" d="M585.093,212.475c0-0.775,0.628-1.403,1.403-1.403c0.775,0,1.403,0.628,1.403,1.403
						c0,0.775-0.628,1.403-1.403,1.403C585.721,213.878,585.093,213.249,585.093,212.475z"/>
					<circle style="fill:#005264;" cx="573.848" cy="212.475" r="1.403"/>
					<circle style="fill:#005264;" cx="561.199" cy="212.475" r="1.403"/>
					<circle style="fill:#005264;" cx="548.551" cy="212.475" r="1.403"/>
					<circle style="fill:#005264;" cx="535.902" cy="212.475" r="1.403"/>
				</g>
				<g>
					<path style="fill:#005264;" d="M597.742,220.47c0-0.775,0.628-1.403,1.403-1.403c0.775,0,1.403,0.628,1.403,1.403
						c0,0.775-0.628,1.403-1.403,1.403C598.37,221.873,597.742,221.245,597.742,220.47z"/>
					<path style="fill:#005264;" d="M585.093,220.47c0-0.775,0.628-1.403,1.403-1.403c0.775,0,1.403,0.628,1.403,1.403
						c0,0.775-0.628,1.403-1.403,1.403C585.721,221.873,585.093,221.245,585.093,220.47z"/>
					<path style="fill:#005264;" d="M572.445,220.47c0-0.775,0.628-1.403,1.403-1.403c0.775,0,1.403,0.628,1.403,1.403
						c0,0.775-0.628,1.403-1.403,1.403C573.073,221.873,572.445,221.245,572.445,220.47z"/>
					<path style="fill:#005264;" d="M559.796,220.47c0-0.775,0.628-1.403,1.403-1.403c0.775,0,1.403,0.628,1.403,1.403
						c0,0.775-0.628,1.403-1.403,1.403C560.424,221.873,559.796,221.245,559.796,220.47z"/>
					<path style="fill:#005264;" d="M547.148,220.47c0-0.775,0.628-1.403,1.403-1.403c0.775,0,1.403,0.628,1.403,1.403
						c0,0.775-0.628,1.403-1.403,1.403C547.776,221.873,547.148,221.245,547.148,220.47z"/>
					<path style="fill:#005264;" d="M534.499,220.47c0-0.775,0.628-1.403,1.403-1.403c0.775,0,1.403,0.628,1.403,1.403
						c0,0.775-0.628,1.403-1.403,1.403C535.128,221.873,534.499,221.245,534.499,220.47z"/>
				</g>
				<g>
					<circle style="fill:#005264;" cx="599.145" cy="228.466" r="1.403"/>
					<path style="fill:#005264;" d="M585.093,228.466c0-0.775,0.628-1.403,1.403-1.403c0.775,0,1.403,0.628,1.403,1.403
						c0,0.775-0.628,1.403-1.403,1.403C585.721,229.869,585.093,229.241,585.093,228.466z"/>
					<circle style="fill:#005264;" cx="573.848" cy="228.466" r="1.403"/>
					<circle style="fill:#005264;" cx="561.199" cy="228.466" r="1.403"/>
					<circle style="fill:#005264;" cx="548.551" cy="228.466" r="1.403"/>
					<circle style="fill:#005264;" cx="535.902" cy="228.466" r="1.403"/>
				</g>
			</g>
			<g>
				<path style="fill:#FED047;" d="M709.808,129.398c55.172,0,99.895-44.722,99.895-99.895c0-55.173-44.722-99.895-99.895-99.895
					c-55.164,0-99.886,44.722-99.886,99.895C609.922,84.676,654.644,129.398,709.808,129.398z M709.808-33.753
					c34.94,0,63.257,28.316,63.257,63.257c0,34.931-28.316,63.257-63.257,63.257c-34.932,0-63.257-28.325-63.257-63.257
					C646.551-5.437,674.876-33.753,709.808-33.753z"/>
				
					<ellipse transform="matrix(0.7071 -0.7071 0.7071 0.7071 187.037 510.5544)" style="fill:none;stroke:#FFFFFF;stroke-miterlimit:10;" cx="709.812" cy="29.504" rx="82.371" ry="82.371"/>
			</g>
			
				<ellipse transform="matrix(0.5824 -0.8129 0.8129 0.5824 107.1714 696.3995)" style="fill:#FFFFFF;" cx="731.35" cy="243.896" rx="33.083" ry="33.083"/>
			<g>
				
					<path style="fill:none;stroke:#005264;stroke-width:0.75;stroke-linecap:round;stroke-linejoin:round;stroke-miterlimit:10;" d="
					M798.083,335.964H679.651c-28.834,0-52.209-23.375-52.209-52.209v0c0-28.834,23.375-52.209,52.209-52.209h118.432"/>
				
					<path style="fill:none;stroke:#005264;stroke-width:0.75;stroke-linecap:round;stroke-linejoin:round;stroke-miterlimit:10;" d="
					M798.083,326.788h-9.176H679.651c-23.729,0-43.034-19.305-43.034-43.033c0-23.729,19.305-43.034,43.034-43.034h109.257h9.176"/>
				
					<path style="fill:none;stroke:#005264;stroke-width:0.75;stroke-linecap:round;stroke-linejoin:round;stroke-miterlimit:10;" d="
					M798.083,317.612h-18.352H679.651c-18.669,0-33.858-15.189-33.858-33.858c0-18.669,15.189-33.858,33.858-33.858h100.081h18.352"
					/>
				
					<path style="fill:none;stroke:#005264;stroke-width:0.75;stroke-linecap:round;stroke-linejoin:round;stroke-miterlimit:10;" d="
					M798.083,308.436h-27.527h-90.905c-13.61,0-24.682-11.072-24.682-24.682c0-13.61,11.073-24.682,24.682-24.682h90.905h27.527"/>
			</g>
			<g>
				
					<path style="fill:none;stroke:#005264;stroke-width:0.75;stroke-linecap:round;stroke-linejoin:round;stroke-miterlimit:10;" d="
					M484.514,601.39V482.957c0-28.835,23.375-52.209,52.209-52.209h0c28.834,0,52.209,23.375,52.209,52.209V601.39"/>
				
					<path style="fill:none;stroke:#005264;stroke-width:0.75;stroke-linecap:round;stroke-linejoin:round;stroke-miterlimit:10;" d="
					M493.69,601.39v-9.176V482.957c0-23.729,19.305-43.034,43.033-43.034c23.729,0,43.034,19.305,43.034,43.034v109.257v9.176"/>
				
					<path style="fill:none;stroke:#005264;stroke-width:0.75;stroke-linecap:round;stroke-linejoin:round;stroke-miterlimit:10;" d="
					M502.865,601.39v-18.352V482.957c0-18.67,15.189-33.858,33.858-33.858c18.669,0,33.858,15.189,33.858,33.858v100.081v18.352"/>
				
					<path style="fill:none;stroke:#005264;stroke-width:0.75;stroke-linecap:round;stroke-linejoin:round;stroke-miterlimit:10;" d="
					M512.041,601.39v-27.527v-90.905c0-13.61,11.072-24.682,24.682-24.682c13.61,0,24.682,11.073,24.682,24.682v90.905v27.527"/>
			</g>
			
				<ellipse transform="matrix(0.7071 -0.7071 0.7071 0.7071 96.5414 441.1483)" style="fill:none;stroke:#005264;stroke-width:0.75;stroke-linecap:round;stroke-linejoin:round;stroke-miterlimit:10;" cx="580.784" cy="104.038" rx="12.251" ry="12.251"/>
			<g>
				<circle style="fill:#FED047;" cx="574.651" cy="348.153" r="28.34"/>
				<circle style="fill:none;stroke:#D2F5EF;stroke-miterlimit:10;" cx="574.651" cy="348.153" r="18.383"/>
				<circle style="fill:none;stroke:#D2F5EF;stroke-miterlimit:10;" cx="574.651" cy="348.153" r="7.128"/>
			</g>
			
				<circle style="fill:none;stroke:#005264;stroke-width:0.75;stroke-linecap:round;stroke-linejoin:round;stroke-miterlimit:10;" cx="686.491" cy="384.998" r="5.734"/>
		</g>
	</g>
</g>
</svg>
